<svg width="383" height="460" viewBox="0 0 383 460" fill="none" xmlns="http://www.w3.org/2000/svg">
<path opacity="0.64" d="M191.1 459.314C296.642 459.314 382.2 442.101 382.2 420.867C382.2 399.633 296.642 382.419 191.1 382.419C85.5584 382.419 0 399.633 0 420.867C0 442.101 85.5584 459.314 191.1 459.314Z" fill="#372D44"/>
<path d="M99.4926 414.689C102.175 405.991 110.385 401.358 123.715 397.456C132.169 395.018 142.899 393.88 159.724 390.466C167.934 388.84 173.705 385.589 173.705 385.589V394.937C173.705 394.937 118.025 405.91 109.328 420.297C105.101 427.369 106.402 444.683 126.316 446.471C120.22 447.365 110.222 445.821 104.857 440.375C98.192 433.628 96.4038 424.605 99.4926 414.689Z" fill="#282323" stroke="black" stroke-width="4" stroke-miterlimit="10" stroke-linecap="round" stroke-linejoin="round"/>
<path d="M173.705 394.937C173.705 394.937 140.379 401.114 122.577 408.755C106.971 415.502 107.458 422.492 107.052 429.645C106.808 433.791 109.734 444.032 121.602 445.821C135.745 447.934 152.409 445.658 173.705 432.084C173.705 398.838 173.705 394.937 173.705 394.937Z" fill="#442C2A"/>
<path opacity="0.37" d="M107.052 429.645C107.377 423.873 107.133 418.184 115.262 412.656C114.936 414.688 114.855 416.639 114.774 418.671C114.53 422.817 124.528 417.452 136.396 419.159C148.751 421.029 156.066 435.172 173.705 425.662C173.705 427.694 173.705 429.807 173.705 432.002C152.409 445.576 135.745 447.771 121.602 445.739C109.734 444.032 106.808 433.709 107.052 429.645Z" fill="#442C2A"/>
<path d="M173.705 394.937C173.705 394.937 140.379 401.114 122.577 408.755C106.971 415.502 107.458 422.492 107.052 429.645C106.808 433.791 109.734 444.032 121.602 445.821C135.745 447.934 152.409 445.658 173.705 432.084C173.705 398.838 173.705 394.937 173.705 394.937Z" stroke="black" stroke-width="4" stroke-miterlimit="10" stroke-linecap="round" stroke-linejoin="round"/>
<path d="M142.817 414.039C140.135 415.502 140.785 429.726 147.288 431.677" stroke="black" stroke-width="4" stroke-miterlimit="10" stroke-linecap="round" stroke-linejoin="round"/>
<path d="M152.978 412.981C150.214 416.883 152.165 426.068 157.123 428.344" stroke="black" stroke-width="4" stroke-miterlimit="10" stroke-linecap="round" stroke-linejoin="round"/>
<path d="M162.325 409.73C159.562 413.632 161.513 422.817 166.471 425.093" stroke="black" stroke-width="4" stroke-miterlimit="10" stroke-linecap="round" stroke-linejoin="round"/>
<path d="M258.241 367.625C240.683 379.818 215.729 386.808 189.637 386.808C163.626 386.808 138.59 379.818 121.033 367.625C112.985 362.017 99.4922 350.312 99.4922 334.705C99.4922 319.098 112.985 307.393 121.033 301.785C138.59 289.592 163.544 282.602 189.637 282.602C215.648 282.602 240.683 289.592 258.241 301.785C266.288 307.393 279.781 319.098 279.781 334.705C279.781 350.312 266.288 362.017 258.241 367.625Z" fill="#151E28"/>
<path d="M338.632 347.71C338.307 349.336 337.981 350.88 337.494 352.506C324.813 398.757 263.687 433.872 190.125 433.872C116.4 433.872 55.1112 398.594 42.6747 352.181C42.3495 350.88 42.0244 349.58 41.7805 348.279C41.4554 345.841 41.5367 343.402 42.0244 340.964C45.0319 327.308 61.614 319.423 79.0901 323.325C90.5513 325.845 99.4926 332.917 103.476 341.289C103.882 343.077 104.532 344.865 105.264 346.572C109.491 356.327 117.944 363.642 123.634 367.706C140.623 379.899 164.927 386.89 190.125 386.89C215.404 386.89 239.627 379.899 256.616 367.706C262.387 363.561 270.922 356.164 275.067 346.41C275.717 344.865 276.286 343.158 276.693 341.533C280.595 333.079 289.617 326.007 301.16 323.406C318.636 319.505 335.218 327.471 338.225 341.045C338.794 343.158 338.876 345.434 338.632 347.71Z" fill="#2A3749"/>
<path opacity="0.67" d="M338.225 340.883C338.144 340.476 338.062 340.151 337.9 339.745C337.656 341.045 337.331 342.427 336.924 343.728C324.407 389.979 263.199 425.093 189.718 425.093C115.993 425.093 54.7045 389.816 42.2679 343.402C42.1054 342.915 42.0241 342.427 41.8615 341.858C41.5364 343.971 41.4551 346.085 41.7802 348.117C42.0241 349.417 42.3492 350.718 42.6744 352.019C55.1109 398.432 116.399 433.71 190.125 433.71C263.687 433.71 324.813 398.595 337.493 352.344C337.9 350.799 338.306 349.174 338.631 347.548C338.875 345.435 338.794 343.159 338.225 340.883Z" fill="#151E28"/>
<path d="M338.632 347.71C338.307 349.336 337.981 350.88 337.494 352.506C324.813 398.757 263.687 433.872 190.125 433.872C116.4 433.872 55.1112 398.595 42.6747 352.181C42.3495 350.88 42.0244 349.58 41.7805 348.279C41.4554 345.841 41.5367 343.402 42.0244 340.964C45.0319 327.308 61.614 319.423 79.0901 323.325C90.5513 325.845 99.4926 332.917 103.476 341.289C103.882 343.077 104.532 344.865 105.264 346.572C109.491 356.327 117.944 363.642 123.634 367.706C140.623 379.899 164.927 386.89 190.125 386.89C215.404 386.89 239.627 379.899 256.616 367.706C262.387 363.561 270.922 356.164 275.067 346.41C275.717 344.865 276.286 343.158 276.693 341.533C280.595 333.079 289.617 326.007 301.16 323.406C318.636 319.505 335.218 327.471 338.225 341.045C338.794 343.158 338.876 345.434 338.632 347.71Z" stroke="black" stroke-width="4" stroke-miterlimit="10" stroke-linecap="round" stroke-linejoin="round"/>
<path d="M191.1 362.017C231.548 362.017 264.338 350.881 264.338 337.144C264.338 323.407 231.548 312.271 191.1 312.271C150.652 312.271 117.863 323.407 117.863 337.144C117.863 350.881 150.652 362.017 191.1 362.017Z" fill="#9B2121"/>
<path d="M191.1 362.017C231.548 362.017 264.338 350.881 264.338 337.144C264.338 323.407 231.548 312.271 191.1 312.271C150.652 312.271 117.863 323.407 117.863 337.144C117.863 350.881 150.652 362.017 191.1 362.017Z" stroke="black" stroke-width="4" stroke-miterlimit="10" stroke-linecap="round" stroke-linejoin="round"/>
<path d="M274.498 282.846H105.751C92.8272 282.846 82.8292 271.547 84.4549 258.704L91.9331 198.96C94.0465 181.89 108.515 169.128 125.747 169.128H254.665C271.816 169.128 286.284 181.89 288.479 198.96L295.957 258.704C297.42 271.547 287.422 282.846 274.498 282.846Z" fill="#F1534D"/>
<path d="M274.498 282.846H105.751C92.8272 282.846 82.8292 271.547 84.4549 258.704L91.9331 198.96C94.0465 181.89 108.515 169.128 125.747 169.128H254.665C271.816 169.128 286.284 181.89 288.479 198.96L295.957 258.704C297.42 271.547 287.422 282.846 274.498 282.846Z" stroke="black" stroke-width="4" stroke-miterlimit="10" stroke-linecap="round" stroke-linejoin="round"/>
<path d="M124.04 219.606L122.415 240.009" stroke="black" stroke-width="4" stroke-miterlimit="10" stroke-linecap="round" stroke-linejoin="round"/>
<path d="M257.428 219.606L259.054 240.009" stroke="black" stroke-width="4" stroke-miterlimit="10" stroke-linecap="round" stroke-linejoin="round"/>
<path d="M274.498 282.845H105.751C92.8267 282.845 82.8287 271.546 84.4544 258.703L91.9326 198.959C94.046 181.89 108.515 169.128 125.747 169.128H254.664C271.815 169.128 286.284 181.89 288.479 198.959L295.957 258.703C297.42 271.546 287.422 282.845 274.498 282.845Z" fill="#F1534D"/>
<g opacity="0.24">
<path d="M91.8512 205.3C93.9646 188.23 108.433 175.468 125.666 175.468H254.583C271.734 175.468 286.203 188.23 288.397 205.3L295.794 264.556C296.038 262.686 296.119 260.736 295.875 258.703L288.397 198.959C286.284 181.89 271.815 169.128 254.583 169.128H125.666C108.515 169.128 94.0459 181.89 91.8512 198.959L84.373 258.703C84.1292 260.654 84.1292 262.605 84.4543 264.556L91.8512 205.3Z" fill="#9B2121"/>
<path d="M133.144 175.468C133.144 175.468 143.142 177.257 143.955 182.784C144.605 187.255 144.523 190.181 146.23 191.969C147.937 193.757 151.92 197.415 159.968 197.415C155.497 192.945 155.416 177.257 154.196 177.257C153.058 177.257 150.132 169.453 150.132 169.453L146.23 167.665C146.312 167.665 131.924 169.453 133.144 175.468Z" fill="#9B2121"/>
<path d="M239.952 175.468C239.952 175.468 229.954 177.257 229.141 182.784C228.491 187.255 228.572 190.181 226.865 191.969C225.158 193.676 221.175 197.415 213.128 197.415C217.599 192.945 217.68 177.257 218.899 177.257C220.037 177.257 222.963 169.453 222.963 169.453L226.865 167.665C226.784 167.665 241.171 169.453 239.952 175.468Z" fill="#9B2121"/>
</g>
<path d="M274.498 282.845H105.751C92.8267 282.845 82.8287 271.546 84.4544 258.703L91.9326 198.959C94.046 181.89 108.515 169.128 125.747 169.128H254.664C271.815 169.128 286.284 181.89 288.479 198.959L295.957 258.703C297.42 271.546 287.422 282.845 274.498 282.845Z" stroke="black" stroke-width="4" stroke-miterlimit="10" stroke-linecap="round" stroke-linejoin="round"/>
<path d="M124.04 219.605L122.414 240.008" stroke="black" stroke-width="4" stroke-miterlimit="10" stroke-linecap="round" stroke-linejoin="round"/>
<path d="M257.428 219.605L259.053 240.008" stroke="black" stroke-width="4" stroke-miterlimit="10" stroke-linecap="round" stroke-linejoin="round"/>
<path d="M168.422 135.152L141.679 133.77L129.161 135.152C129.161 135.152 120.789 141.411 120.789 143.118C120.789 144.825 121.602 158.724 121.602 158.724C121.602 158.724 141.354 161.407 143.467 163.439C145.581 165.471 158.099 177.176 158.099 177.176L170.21 172.461L176.55 155.554L168.422 135.152Z" fill="#9B2121"/>
<path d="M163.707 124.829H132.819C120.383 124.829 110.222 134.908 110.222 147.426C110.222 159.862 120.301 170.023 132.819 170.023H136.883C143.468 170.023 148.751 175.306 148.751 181.89V183.11C148.751 190.994 155.173 197.416 163.057 197.416V182.784C163.22 182.784 163.382 182.947 163.382 183.11V181.89C163.382 167.259 151.515 155.392 136.883 155.392H132.819C128.43 155.392 124.853 151.815 124.853 147.426C124.853 143.036 128.43 139.46 132.819 139.46H163.707V124.829Z" fill="#F1534D"/>
<path d="M161.838 172.705C158.099 162.626 148.344 155.31 136.965 155.31H132.9C128.511 155.31 124.934 151.734 124.934 147.344C124.934 142.955 128.511 139.378 132.9 139.378H163.788V124.747H132.9C120.464 124.747 110.303 134.826 110.303 147.344C110.303 159.781 120.383 169.941 132.9 169.941H136.965C143.549 169.941 148.832 175.225 148.832 181.809V183.028C148.832 190.913 155.254 197.334 163.138 197.334" stroke="black" stroke-width="4" stroke-miterlimit="10" stroke-linecap="round" stroke-linejoin="round"/>
<path d="M203.78 135.151L230.523 133.77L243.041 135.151C243.041 135.151 251.413 141.41 251.413 143.117C251.413 144.824 250.6 158.724 250.6 158.724C250.6 158.724 230.848 161.406 228.735 163.438C226.621 165.552 214.103 177.175 214.103 177.175L201.992 172.461L195.652 155.554L203.78 135.151Z" fill="#9B2121"/>
<path d="M208.495 124.829H239.383C251.819 124.829 261.98 134.908 261.98 147.426C261.98 159.862 251.901 170.023 239.383 170.023H235.319C228.734 170.023 223.451 175.306 223.451 181.89V183.11C223.451 190.994 217.03 197.416 209.145 197.416V182.784C208.982 182.784 208.82 182.947 208.82 183.11V181.89C208.82 167.259 220.687 155.392 235.319 155.392H239.383C243.772 155.392 247.349 151.815 247.349 147.426C247.349 143.036 243.772 139.46 239.383 139.46H208.495V124.829Z" fill="#F1534D"/>
<path d="M210.445 172.705C214.185 162.626 223.939 155.31 235.319 155.31H239.383C243.772 155.31 247.349 151.734 247.349 147.344C247.349 142.955 243.772 139.378 239.383 139.378H208.495V124.747H239.383C251.819 124.747 261.98 134.826 261.98 147.344C261.98 159.781 251.901 169.941 239.383 169.941H235.319C228.734 169.941 223.451 175.225 223.451 181.809V183.028C223.451 190.913 217.03 197.334 209.145 197.334" stroke="black" stroke-width="4" stroke-miterlimit="10" stroke-linecap="round" stroke-linejoin="round"/>
<path d="M187.605 185.873C205.113 185.873 219.306 171.68 219.306 154.172C219.306 136.664 205.113 122.471 187.605 122.471C170.097 122.471 155.904 136.664 155.904 154.172C155.904 171.68 170.097 185.873 187.605 185.873Z" fill="#F46262"/>
<path d="M157.286 144.824C166.064 150.433 176.469 153.765 187.605 153.765C198.741 153.765 209.145 150.514 217.924 144.824C213.941 131.819 201.911 122.39 187.605 122.39C173.38 122.471 161.269 131.9 157.286 144.824Z" fill="#F1534D"/>
<path d="M187.605 185.873C205.113 185.873 219.306 171.68 219.306 154.172C219.306 136.664 205.113 122.471 187.605 122.471C170.097 122.471 155.904 136.664 155.904 154.172C155.904 171.68 170.097 185.873 187.605 185.873Z" stroke="black" stroke-width="4" stroke-miterlimit="10" stroke-linecap="round" stroke-linejoin="round"/>
<path d="M187.605 172.542C177.281 172.542 168.909 164.169 168.909 153.846V139.865C168.909 137.264 171.023 135.151 173.624 135.151H201.667C204.268 135.151 206.381 137.264 206.381 139.865V153.846C206.3 164.169 197.928 172.542 187.605 172.542Z" fill="#FFC897"/>
<path d="M201.667 135.151H173.624C171.023 135.151 168.909 137.427 168.909 140.191V151.652C174.762 153.846 181.021 155.066 187.605 155.066C194.189 155.066 200.448 153.846 206.3 151.652V140.191C206.3 137.427 204.187 135.151 201.667 135.151Z" fill="#E5A973"/>
<path d="M187.605 172.542C177.281 172.542 168.909 164.169 168.909 153.846V139.865C168.909 137.264 171.023 135.151 173.624 135.151H201.667C204.268 135.151 206.381 137.264 206.381 139.865V153.846C206.3 164.169 197.928 172.542 187.605 172.542Z" stroke="black" stroke-width="4" stroke-miterlimit="10" stroke-linecap="round" stroke-linejoin="round"/>
<path d="M207.845 383.15H190.45V438.668H207.845V383.15Z" fill="#607691"/>
<path d="M207.845 383.15H190.45V438.668H207.845V383.15Z" stroke="black" stroke-width="4" stroke-miterlimit="10" stroke-linecap="round" stroke-linejoin="round"/>
<path d="M105.182 346.41C104.451 344.703 103.882 342.996 103.394 341.126C104.288 342.915 104.857 344.622 105.182 346.41Z" stroke="black" stroke-width="4" stroke-miterlimit="10" stroke-linecap="round" stroke-linejoin="round"/>
<path d="M275.148 346.247C275.474 344.54 276.043 342.915 276.774 341.37C276.368 343.077 275.799 344.703 275.148 346.247Z" stroke="black" stroke-width="4" stroke-miterlimit="10" stroke-linecap="round" stroke-linejoin="round"/>
<path d="M274.904 342.346H105.426C99.411 342.346 94.2901 337.875 93.4773 331.86L82.9103 249.112C82.0161 241.959 87.6248 235.538 94.8591 235.538H285.471C292.706 235.538 298.314 241.878 297.42 249.112L286.853 331.86C286.04 337.794 280.919 342.346 274.904 342.346Z" fill="#B5B5B5"/>
<path opacity="0.21" d="M286.772 326.658C286.04 332.673 280.919 337.144 274.823 337.144H105.426C99.411 337.144 94.2901 332.673 93.4773 326.658L83.0728 245.129C82.829 246.43 82.7477 247.73 82.9103 249.112L93.4773 331.86C94.2088 337.875 99.3297 342.346 105.426 342.346H274.904C280.919 342.346 286.04 337.875 286.853 331.86L297.42 249.112C297.583 247.73 297.501 246.43 297.258 245.129L286.772 326.658Z" fill="#7E7E7E"/>
<path opacity="0.21" d="M82.9916 249.844C83.967 244.317 88.844 239.927 94.7778 239.927H285.39C291.405 239.927 296.201 244.235 297.176 249.844L297.258 249.031C298.152 241.878 292.543 235.457 285.309 235.457H94.8591C87.6248 235.457 82.0161 241.797 82.9103 249.031L82.9916 249.844Z" fill="#7E7E7E"/>
<path d="M274.904 342.346H105.426C99.411 342.346 94.2901 337.875 93.4773 331.86L82.9103 249.112C82.0161 241.959 87.6248 235.538 94.8591 235.538H285.471C292.706 235.538 298.314 241.878 297.42 249.112L286.853 331.86C286.04 337.794 280.919 342.346 274.904 342.346Z" stroke="black" stroke-width="4" stroke-miterlimit="10" stroke-linecap="round" stroke-linejoin="round"/>
<path opacity="0.66" d="M198.172 283.902C194.514 283.902 191.588 280.976 191.588 277.318C191.588 277.074 191.588 276.83 191.669 276.586C191.019 276.505 190.368 276.424 189.718 276.424C183.784 276.424 178.907 281.301 178.907 287.235C178.907 293.168 183.784 298.046 189.718 298.046C195.652 298.046 200.529 293.168 200.529 287.235C200.529 286.015 200.285 284.796 199.96 283.658C199.391 283.739 198.822 283.902 198.172 283.902Z" fill="#B5B5B5"/>
<path d="M282.058 414.689C279.375 405.991 271.165 401.358 257.835 397.456C249.381 395.018 238.652 393.88 221.826 390.466C213.616 388.84 207.845 385.589 207.845 385.589V394.937C207.845 394.937 263.525 405.91 272.222 420.297C276.449 427.369 275.148 444.683 255.234 446.471C261.33 447.365 271.328 445.821 276.693 440.375C283.358 433.628 285.146 424.605 282.058 414.689Z" fill="#282323" stroke="black" stroke-width="4" stroke-miterlimit="10" stroke-linecap="round" stroke-linejoin="round"/>
<path d="M207.845 394.937C207.845 394.937 241.171 401.114 258.973 408.755C274.579 415.502 274.092 422.492 274.498 429.645C274.742 433.791 271.816 444.032 259.948 445.821C245.805 447.934 229.141 445.658 207.845 432.084C207.845 398.838 207.845 394.937 207.845 394.937Z" fill="#442C2A"/>
<path opacity="0.37" d="M274.498 429.645C274.173 423.873 274.417 418.184 266.288 412.656C266.613 414.688 266.695 416.639 266.776 418.671C267.02 422.817 264.094 433.059 252.226 434.847C239.871 436.716 225.483 435.172 207.845 425.662C207.845 427.694 207.845 429.807 207.845 432.002C229.141 445.576 245.805 447.771 259.948 445.739C271.897 444.032 274.742 433.709 274.498 429.645Z" fill="#442C2A"/>
<path d="M207.845 394.937C207.845 394.937 241.171 401.114 258.973 408.755C274.579 415.502 274.092 422.492 274.498 429.645C274.742 433.791 271.816 444.032 259.948 445.821C245.805 447.934 229.141 445.658 207.845 432.084C207.845 398.838 207.845 394.937 207.845 394.937Z" stroke="black" stroke-width="4" stroke-miterlimit="10" stroke-linecap="round" stroke-linejoin="round"/>
<path d="M238.733 414.039C241.415 415.502 240.765 429.726 234.262 431.677" stroke="black" stroke-width="4" stroke-miterlimit="10" stroke-linecap="round" stroke-linejoin="round"/>
<path d="M228.572 412.981C231.336 416.883 229.385 426.068 224.427 428.344" stroke="black" stroke-width="4" stroke-miterlimit="10" stroke-linecap="round" stroke-linejoin="round"/>
<path d="M219.225 409.73C221.988 413.632 220.037 422.817 215.079 425.093" stroke="black" stroke-width="4" stroke-miterlimit="10" stroke-linecap="round" stroke-linejoin="round"/>
<path d="M159.074 189.125V232.368" stroke="black" stroke-width="6" stroke-miterlimit="10" stroke-linecap="round" stroke-linejoin="round"/>
<path d="M213.941 189.125V219.606" stroke="black" stroke-width="6" stroke-miterlimit="10" stroke-linecap="round" stroke-linejoin="round"/>
<path d="M213.941 228.791C217.667 228.791 220.688 225.771 220.688 222.044C220.688 218.318 217.667 215.298 213.941 215.298C210.215 215.298 207.194 218.318 207.194 222.044C207.194 225.771 210.215 228.791 213.941 228.791Z" fill="black"/>
<path d="M213.941 223.995C215.467 223.995 216.705 222.758 216.705 221.231C216.705 219.705 215.467 218.468 213.941 218.468C212.415 218.468 211.177 219.705 211.177 221.231C211.177 222.758 212.415 223.995 213.941 223.995Z" fill="#7E7E7E"/>
<path d="M187.605 148.888C159.318 148.888 136.314 125.966 136.314 97.5975V38.0972H238.896V97.5975C238.896 125.884 215.973 148.888 187.605 148.888Z" fill="#FFC897"/>
<path d="M187.605 141.816C159.318 141.816 136.314 118.894 136.314 90.5259V97.5976C136.314 125.885 159.237 148.888 187.605 148.888C215.892 148.888 238.896 125.966 238.896 97.5976V90.5259C238.896 118.813 215.973 141.816 187.605 141.816Z" fill="#E5A973"/>
<path d="M187.605 148.888C159.318 148.888 136.314 125.966 136.314 97.5975V38.0972H238.896V97.5975C238.896 125.885 215.973 148.888 187.605 148.888Z" stroke="black" stroke-width="4" stroke-miterlimit="10" stroke-linecap="round" stroke-linejoin="round"/>
<path d="M239.302 44.0312C239.139 41.2675 238.977 38.4226 238.895 35.6589C204.756 37.2846 170.454 37.0407 136.395 34.0332C136.152 37.2033 135.989 40.3734 135.745 43.5435C137.29 44.9253 138.915 46.3885 140.46 47.7703C141.76 48.4206 143.467 49.3147 145.012 50.1276C151.839 53.7041 161.35 58.256 170.454 60.0443C173.786 60.6945 177.282 61.0197 180.858 60.9384C196.221 60.7758 209.145 54.6795 214.591 52.1597C215.404 51.7533 216.054 51.4281 216.461 51.3468C216.786 51.1843 217.111 51.103 217.599 51.103C218.574 51.103 219.712 51.3468 221.094 51.5907C222.882 51.9971 224.996 52.4035 227.353 52.2409C230.035 52.0784 232.474 51.2655 234.831 49.7211C236.213 47.7703 237.757 45.9008 239.302 44.0312Z" fill="#E5A973"/>
<path d="M214.591 13.1431C214.591 13.1431 173.543 -13.9247 139.566 16.3132C133.225 21.9218 130.706 29.969 130.706 37.3659V76.5451H136.395V48.0955C136.395 45.9821 137.859 44.3564 139.647 44.3564C142.573 44.3564 158.424 52.81 171.836 55.1672C192.075 58.6624 210.527 49.3147 214.51 47.9329C221.338 45.4944 226.865 53.948 235.481 44.4377H235.807C237.595 44.4377 239.058 46.1446 239.058 48.1767V76.6263H244.748V37.6098C244.585 28.0182 233.531 3.95794 214.591 13.1431Z" fill="#231A17"/>
<g opacity="0.34">
<path d="M136.314 71.1802H130.625V76.545H136.314V71.1802Z" fill="#231A17"/>
<path d="M244.585 71.1802H238.896V76.545H244.585V71.1802Z" fill="#231A17"/>
</g>
<path d="M214.591 13.1431C214.591 13.1431 173.543 -13.9247 139.566 16.3132C133.225 21.9218 130.706 29.969 130.706 37.3659V76.5451H136.395V48.0955C136.395 45.9821 137.859 44.3564 139.647 44.3564C142.573 44.3564 158.424 52.81 171.836 55.1672C192.075 58.6624 210.527 49.3147 214.51 47.9329C221.338 45.4944 226.865 53.948 235.481 44.4377H235.807C237.595 44.4377 239.058 46.1446 239.058 48.1767V76.6263H244.748V37.6098C244.585 28.0182 233.531 3.95794 214.591 13.1431Z" stroke="black" stroke-width="4" stroke-miterlimit="10" stroke-linecap="round" stroke-linejoin="round"/>
<path d="M179.883 39.5606C179.883 39.5606 135.827 42.4056 126.479 18.9956" stroke="black" stroke-width="4" stroke-miterlimit="10" stroke-linecap="round" stroke-linejoin="round"/>
<path d="M186.142 33.9522C186.142 33.9522 143.711 31.2698 132.657 7.85986" stroke="black" stroke-width="4" stroke-miterlimit="10" stroke-linecap="round" stroke-linejoin="round"/>
<path d="M238.895 70.2046V96.8659C244.585 96.8659 249.137 90.9321 249.137 83.5353C249.137 76.1384 244.585 70.2046 238.895 70.2046Z" fill="#FFC897"/>
<path d="M238.895 71.668V95.3218C242.228 93.1271 244.504 88.6564 244.504 83.4542C244.504 78.3333 242.228 73.8627 238.895 71.668Z" fill="#E5A973"/>
<path d="M238.895 70.2046V96.8659C244.585 96.8659 249.137 90.9321 249.137 83.5353C249.137 76.1384 244.585 70.2046 238.895 70.2046Z" stroke="black" stroke-width="4" stroke-miterlimit="10" stroke-linecap="round" stroke-linejoin="round"/>
<path d="M136.396 70.2046V96.8659C130.706 96.8659 126.154 90.9321 126.154 83.5353C126.073 76.1384 130.706 70.2046 136.396 70.2046Z" fill="#FFC897"/>
<path d="M136.396 72.1553C133.47 74.5125 131.438 78.7393 131.438 83.5351C131.438 88.3309 133.388 92.5577 136.396 94.9149V72.1553Z" fill="#E5A973"/>
<path d="M136.396 70.2046V96.8659C130.706 96.8659 126.154 90.9321 126.154 83.5353C126.073 76.1384 130.706 70.2046 136.396 70.2046Z" stroke="black" stroke-width="4" stroke-miterlimit="10" stroke-linecap="round" stroke-linejoin="round"/>
<path d="M185.492 91.9077L182.078 103.044C182.078 104.263 186.061 103.288 190.125 104.263" stroke="black" stroke-width="4" stroke-miterlimit="10" stroke-linecap="round" stroke-linejoin="round"/>
<path d="M204.675 112.717C205.894 121.17 195.002 128.649 186.467 127.104" stroke="black" stroke-width="3" stroke-miterlimit="10" stroke-linecap="round" stroke-linejoin="round"/>
<path d="M169.153 82.4787C171.039 82.4787 172.567 80.841 172.567 78.8209C172.567 76.8007 171.039 75.1631 169.153 75.1631C167.268 75.1631 165.739 76.8007 165.739 78.8209C165.739 80.841 167.268 82.4787 169.153 82.4787Z" stroke="black" stroke-width="2" stroke-miterlimit="10" stroke-linecap="round" stroke-linejoin="round"/>
<path d="M169.153 82.4787C171.039 82.4787 172.567 80.841 172.567 78.8209C172.567 76.8007 171.039 75.1631 169.153 75.1631C167.268 75.1631 165.739 76.8007 165.739 78.8209C165.739 80.841 167.268 82.4787 169.153 82.4787Z" fill="black"/>
<path d="M157.367 71.0985C159.074 69.0664 163.057 67.6846 167.772 67.6846C171.511 67.6846 174.762 68.5787 176.794 69.9606" stroke="black" stroke-width="3" stroke-miterlimit="10" stroke-linecap="round" stroke-linejoin="round"/>
<path d="M206.544 82.4787C208.43 82.4787 209.958 80.841 209.958 78.8209C209.958 76.8007 208.43 75.1631 206.544 75.1631C204.659 75.1631 203.13 76.8007 203.13 78.8209C203.13 80.841 204.659 82.4787 206.544 82.4787Z" stroke="black" stroke-width="2" stroke-miterlimit="10" stroke-linecap="round" stroke-linejoin="round"/>
<path d="M206.544 82.4787C208.43 82.4787 209.958 80.841 209.958 78.8209C209.958 76.8007 208.43 75.1631 206.544 75.1631C204.659 75.1631 203.13 76.8007 203.13 78.8209C203.13 80.841 204.659 82.4787 206.544 82.4787Z" fill="black"/>
<path d="M218.33 71.0985C216.623 69.0664 212.64 67.6846 207.926 67.6846C204.187 67.6846 200.935 68.5787 198.903 69.9606" stroke="black" stroke-width="3" stroke-miterlimit="10" stroke-linecap="round" stroke-linejoin="round"/>
<path fill-rule="evenodd" clip-rule="evenodd" d="M196.81 356.445H191.357V355.818H196.81V356.445Z" fill="#FEF7FF"/>
<g filter="url(#filter0_i_102_2167)">
<path d="M190.829 279.994C194.163 279.957 196.95 281.228 197.589 281.933C195.698 288.305 191.731 287.921 188.782 287.795L188.753 288.177C188.13 288.152 187.568 288.138 187.11 288.197C186.704 288.249 186.388 288.354 186.155 288.528C185.922 288.701 185.75 288.946 185.641 289.372C185.622 289.445 185.582 289.512 185.524 289.562C185.416 289.891 185.294 290.192 185.107 290.389C185.092 290.572 185.088 290.75 185.1 290.997C185.31 292.554 186.757 291.203 187.609 292.007C187.92 292.3 188.696 293.266 188.557 293.506C188.548 293.523 188.534 293.536 188.517 293.545C188.451 293.579 188.325 293.563 188.117 293.477C187.144 293.278 186.449 294.462 185.562 294.38C185.205 294.347 184.941 294.151 184.746 294.001C184.706 294.332 184.74 294.961 184.431 295.253C183.878 295.741 182.884 296.125 182.992 297.538C181.98 296.47 181.139 295.764 182.195 293.984C182.569 293.366 182.786 293.023 182.601 292.59C182.5 292.458 182.206 292.13 182.105 291.979C178.404 288.152 181.667 283.822 184.581 281.877C186.63 280.509 188.828 280.016 190.829 279.994Z" fill="#FEF7FF"/>
</g>
<defs>
<filter id="filter0_i_102_2167" x="180.452" y="279.993" width="17.1377" height="19.5454" filterUnits="userSpaceOnUse" color-interpolation-filters="sRGB">
<feFlood flood-opacity="0" result="BackgroundImageFix"/>
<feBlend mode="normal" in="SourceGraphic" in2="BackgroundImageFix" result="shape"/>
<feColorMatrix in="SourceAlpha" type="matrix" values="0 0 0 0 0 0 0 0 0 0 0 0 0 0 0 0 0 0 127 0" result="hardAlpha"/>
<feOffset dy="2"/>
<feGaussianBlur stdDeviation="2"/>
<feComposite in2="hardAlpha" operator="arithmetic" k2="-1" k3="1"/>
<feColorMatrix type="matrix" values="0 0 0 0 0.6875 0 0 0 0 0.6875 0 0 0 0 0.6875 0 0 0 0.25 0"/>
<feBlend mode="normal" in2="shape" result="effect1_innerShadow_102_2167"/>
</filter>
</defs>
</svg>
