<svg width="95" height="95" viewBox="0 0 95 95" fill="none" xmlns="http://www.w3.org/2000/svg">
<g filter="url(#filter0_i_108_2330)">
<g filter="url(#filter1_i_108_2330)">
<path fill-rule="evenodd" clip-rule="evenodd" d="M90.6818 82.0454H60.4546V79.0559H90.6818V82.0454Z" fill="#FEF7FF"/>
</g>
<g filter="url(#filter2_i_108_2330)">
<path d="M57.5247 0.00421661C76.0094 -0.194606 91.4591 6.68564 95 10.5047C84.5188 45.0054 62.5252 42.926 46.1797 42.2425L46.0167 44.3096C42.5616 44.1749 39.4515 44.0983 36.9073 44.4193C34.6567 44.703 32.9055 45.2705 31.6152 46.2108C30.3249 47.1511 29.369 48.4766 28.7688 50.7817C28.6631 51.1802 28.437 51.5393 28.1193 51.8131C27.5191 53.5902 26.844 55.2202 25.8045 56.2867C25.7229 57.2809 25.6994 58.2419 25.7701 59.584C26.9319 68.0134 34.9547 60.6983 39.6787 65.0517C41.3978 66.6382 45.6996 71.8657 44.9322 73.1684C44.8805 73.2576 44.803 73.3302 44.7092 73.3776C44.3449 73.564 43.644 73.477 42.4908 73.0111C37.1001 71.934 33.2463 78.3442 28.3294 77.9009C26.351 77.7228 24.8849 76.6583 23.8068 75.8464C23.5818 77.6379 23.7746 81.0449 22.0577 82.6251C18.9927 85.2679 13.4841 87.3473 14.0843 95C8.47286 89.2175 3.81092 85.39 9.66667 75.7573C11.7394 72.4063 12.9397 70.5526 11.9173 68.2081C11.3557 67.4915 9.72676 65.7145 9.16304 64.9005C-11.3494 44.1769 6.73456 20.732 22.8916 10.1982C34.2494 2.79194 46.4347 0.124345 57.5247 0.00421661Z" fill="#FEF7FF"/>
</g>
</g>
<defs>
<filter id="filter0_i_108_2330" x="0" y="0" width="95" height="99" filterUnits="userSpaceOnUse" color-interpolation-filters="sRGB">
<feFlood flood-opacity="0" result="BackgroundImageFix"/>
<feBlend mode="normal" in="SourceGraphic" in2="BackgroundImageFix" result="shape"/>
<feColorMatrix in="SourceAlpha" type="matrix" values="0 0 0 0 0 0 0 0 0 0 0 0 0 0 0 0 0 0 127 0" result="hardAlpha"/>
<feOffset dy="4"/>
<feGaussianBlur stdDeviation="2"/>
<feComposite in2="hardAlpha" operator="arithmetic" k2="-1" k3="1"/>
<feColorMatrix type="matrix" values="0 0 0 0 0.395833 0 0 0 0 0.395833 0 0 0 0 0.395833 0 0 0 0.21 0"/>
<feBlend mode="normal" in2="shape" result="effect1_innerShadow_108_2330"/>
</filter>
<filter id="filter1_i_108_2330" x="60.4546" y="78.0559" width="30.2271" height="3.9895" filterUnits="userSpaceOnUse" color-interpolation-filters="sRGB">
<feFlood flood-opacity="0" result="BackgroundImageFix"/>
<feBlend mode="normal" in="SourceGraphic" in2="BackgroundImageFix" result="shape"/>
<feColorMatrix in="SourceAlpha" type="matrix" values="0 0 0 0 0 0 0 0 0 0 0 0 0 0 0 0 0 0 127 0" result="hardAlpha"/>
<feOffset dy="-1"/>
<feGaussianBlur stdDeviation="2"/>
<feComposite in2="hardAlpha" operator="arithmetic" k2="-1" k3="1"/>
<feColorMatrix type="matrix" values="0 0 0 0 0.379167 0 0 0 0 0.379167 0 0 0 0 0.379167 0 0 0 0.25 0"/>
<feBlend mode="normal" in2="shape" result="effect1_innerShadow_108_2330"/>
</filter>
<filter id="filter2_i_108_2330" x="0" y="0" width="95" height="97" filterUnits="userSpaceOnUse" color-interpolation-filters="sRGB">
<feFlood flood-opacity="0" result="BackgroundImageFix"/>
<feBlend mode="normal" in="SourceGraphic" in2="BackgroundImageFix" result="shape"/>
<feColorMatrix in="SourceAlpha" type="matrix" values="0 0 0 0 0 0 0 0 0 0 0 0 0 0 0 0 0 0 127 0" result="hardAlpha"/>
<feOffset dy="2"/>
<feGaussianBlur stdDeviation="2"/>
<feComposite in2="hardAlpha" operator="arithmetic" k2="-1" k3="1"/>
<feColorMatrix type="matrix" values="0 0 0 0 0.6875 0 0 0 0 0.6875 0 0 0 0 0.6875 0 0 0 0.25 0"/>
<feBlend mode="normal" in2="shape" result="effect1_innerShadow_108_2330"/>
</filter>
</defs>
</svg>
