<svg width="1728" height="557" viewBox="0 0 1728 557" fill="none" xmlns="http://www.w3.org/2000/svg">
<g filter="url(#filter0_d_102_2001)">
<path d="M0 40.9999C0 40.9999 78.2778 19.1815 129 22.9999C204.578 28.6894 232.248 95.5344 308 97.9999C364.187 99.8287 391.901 60.868 448 64.4999C482.357 66.7242 533.5 85.9999 533.5 85.9999C533.5 85.9999 606.776 36.9426 658.5 40.9999C679.368 42.6368 689.971 49.9132 710.5 53.9999C833.065 78.3985 907.488 -6.19415 1029 22.9999C1090.25 37.7163 1114.75 80.4363 1177.5 85.9999C1246.47 92.1152 1279.76 41.7246 1349 40.9999C1401.55 40.4499 1429.29 70.4705 1481.5 64.4999C1526.75 59.3251 1545.39 29.2914 1590.5 22.9999C1644.14 15.5195 1728 40.9999 1728 40.9999V557H0V40.9999Z" fill="#1F1926"/>
</g>
<defs>
<filter id="filter0_d_102_2001" x="-12" y="0.79126" width="1748" height="560.209" filterUnits="userSpaceOnUse" color-interpolation-filters="sRGB">
<feFlood flood-opacity="0" result="BackgroundImageFix"/>
<feColorMatrix in="SourceAlpha" type="matrix" values="0 0 0 0 0 0 0 0 0 0 0 0 0 0 0 0 0 0 127 0" result="hardAlpha"/>
<feOffset dx="-2" dy="-6"/>
<feGaussianBlur stdDeviation="5"/>
<feComposite in2="hardAlpha" operator="out"/>
<feColorMatrix type="matrix" values="0 0 0 0 0 0 0 0 0 0 0 0 0 0 0 0 0 0 0.2 0"/>
<feBlend mode="normal" in2="BackgroundImageFix" result="effect1_dropShadow_102_2001"/>
<feBlend mode="normal" in="SourceGraphic" in2="effect1_dropShadow_102_2001" result="shape"/>
</filter>
</defs>
</svg>
